HIERARCHY
ROOT RootJoint
{
    OFFSET   0.000000   0.000000   0.000000
    CHANNELS 6 Xposition Yposition Zposition Xrotation Yrotation Zrotation
    JOINT pelvis_lowerback
    {
        OFFSET   0.000000   0.093605   0.000000
        CHANNELS 3 Xrotation Yrotation Zrotation
        JOINT lowerback_torso
        {
            OFFSET   0.000000   0.100000   0.000000
            CHANNELS 3 Xrotation Yrotation Zrotation
            JOINT torso_head
            {
                OFFSET   0.000000   0.282350   0.000000
                CHANNELS 3 Xrotation Yrotation Zrotation
                End Site
                {
                    OFFSET   0.000000   0.192650   0.000000
                }
            }
            JOINT rTorso_Clavicle
            {
                OFFSET  -0.001000   0.157500   0.000000
                CHANNELS 3 Xrotation Yrotation Zrotation
                JOINT rShoulder
                {
                    OFFSET  -0.117647   0.000000   0.000000
                    CHANNELS 3 Xrotation Yrotation Zrotation
                    JOINT rElbow
                    {
                        OFFSET  -0.245000   0.000000   0.000000
                        CHANNELS 3 Xrotation Yrotation Zrotation
                        JOINT rWrist
                        {
                            OFFSET  -0.240000   0.000000   0.000000
                            CHANNELS 3 Xrotation Yrotation Zrotation
                            End Site
                            {
                                OFFSET  -0.116353  -0.002500   0.000000
                            }
                        }
                    }
                }
            }
            JOINT lTorso_Clavicle
            {
                OFFSET   0.001000   0.157500   0.000000
                CHANNELS 3 Xrotation Yrotation Zrotation
                JOINT lShoulder
                {
                    OFFSET   0.117647   0.000000   0.000000
                    CHANNELS 3 Xrotation Yrotation Zrotation
                    JOINT lElbow
                    {
                        OFFSET   0.245000   0.000000   0.000000
                        CHANNELS 3 Xrotation Yrotation Zrotation
                        JOINT lWrist
                        {
                            OFFSET   0.240000   0.000000   0.000000
                            CHANNELS 3 Xrotation Yrotation Zrotation
                            End Site
                            {
                                OFFSET   0.116353  -0.002500   0.000000
                            }
                        }
                    }
                }
            }
        }
    }
    JOINT rHip
    {
        OFFSET  -0.100000  -0.051395   0.000000
        CHANNELS 3 Xrotation Yrotation Zrotation
        JOINT rKnee
        {
            OFFSET   0.000000  -0.410000   0.000000
            CHANNELS 3 Xrotation Yrotation Zrotation
            JOINT rAnkle
            {
                OFFSET   0.000000  -0.390000   0.000000
                CHANNELS 3 Xrotation Yrotation Zrotation
                JOINT rToeJoint
                {
                    OFFSET   0.000000  -0.050000   0.130000
                    CHANNELS 3 Xrotation Yrotation Zrotation
                    End Site
                    {
                        OFFSET  -0.010000   0.002000   0.060000
                    }
                }
            }
        }
    }
    JOINT lHip
    {
        OFFSET   0.100000  -0.051395   0.000000
        CHANNELS 3 Xrotation Yrotation Zrotation
        JOINT lKnee
        {
            OFFSET   0.000000  -0.410000   0.000000
            CHANNELS 3 Xrotation Yrotation Zrotation
            JOINT lAnkle
            {
                OFFSET   0.000000  -0.390000   0.000000
                CHANNELS 3 Xrotation Yrotation Zrotation
                JOINT lToeJoint
                {
                    OFFSET   0.000000  -0.050000   0.130000
                    CHANNELS 3 Xrotation Yrotation Zrotation
                    End Site
                    {
                        OFFSET   0.010000   0.002000   0.060000
                    }
                }
            }
        }
    }
}
MOTION
Frames: 8
Frame Time:   0.008333
 -2.568778   0.850912   4.673314  -7.461614 -22.762107  -4.604215  17.504274  -3.985079  -1.701972  -3.247797  -1.440650  -0.433542   0.966842   0.679814  -6.855364  -1.528602  -4.150727 -17.750630  -3.702222  -1.020115   9.788431  -0.000571  35.154286  -0.000199   2.752267   5.985893  -9.879633  -5.064070  -1.978190  20.599290 -10.012373  -7.735478   1.288112  -0.048104 -77.350620  -0.045447   0.520509 -10.024675  12.963171 -21.261954  -7.650502   4.657010  44.407378   0.001956   0.005153 -16.507485  -7.728733  -6.672828  -0.648688   0.000810   0.000135 -35.944533   5.944897  14.822661  93.599809  -0.033673  -0.079504  -8.132151  14.176372  -2.445681  -3.750819   0.003701  -0.035415
 -2.570300   0.853873   4.676875  -8.283931 -23.023673  -4.822261  17.798753  -3.644017  -1.804967  -3.285950  -1.484608  -0.459428   1.216671   0.621311  -7.018984  -1.494115  -3.880275 -18.126180  -3.260535  -0.864762  10.012119  -0.000469  34.637280  -0.000106   2.752604   5.900051  -9.725631  -5.291440  -2.498987  20.860595 -10.670200  -7.996542   1.275250  -0.005673 -76.812161  -0.005355   0.541740 -10.391459  12.952867 -19.751929  -7.560285   4.583610  43.547548   0.002052   0.006829 -16.362867  -7.366568  -6.513431  -0.692473   0.000697   0.000109 -38.035227   5.759677  14.395927  95.875177  -0.027231  -0.078972  -7.591590  13.527021  -3.071038  -3.156921   0.007658  -0.035610
 -2.571539   0.857112   4.680005  -9.183164 -23.281500  -5.018358  18.204406  -3.297795  -1.962767  -3.235999  -1.516886  -0.515016   1.458678   0.562219  -7.183541  -1.449608  -3.571634 -18.514278  -2.857399  -0.683397  10.199442  -0.000270  34.151949   0.000445   2.741670   5.728353  -9.563440  -5.520449  -3.038416  21.171036 -11.315916  -8.250665   1.298925   0.023799 -76.262466   0.022068   0.479062 -10.358256  13.080352 -18.161570  -7.447634   4.443424  42.572939   0.002077   0.008589 -16.126149  -7.000435  -6.359709  -0.729931   0.000595   0.000088 -40.342699   5.664129  13.954970  98.005239  -0.020833  -0.078274  -7.095678  12.909619  -3.655261  -2.625923   0.010819  -0.035102
 -2.572590   0.860465   4.683021 -10.154965 -23.586935  -5.198100  18.656491  -2.939503  -2.159794  -3.119543  -1.511016  -0.605274   1.697563   0.505676  -7.343424  -1.398893  -3.238251 -18.915826  -2.491047  -0.478674  10.349928   0.000086  33.710256   0.000942   2.738710   5.596108  -9.420165  -5.735914  -3.556645  21.491914 -11.926342  -8.495260   1.336111   0.042159 -75.741545   0.038889   0.422164 -10.335489  13.239816 -16.515381  -7.275670   4.251139  41.554751   0.001998   0.010238 -15.852927  -6.625552  -6.225000  -0.758258   0.000496   0.000071 -42.732546   5.596260  13.511773  99.960361  -0.016970  -0.077176  -6.643329  12.327045  -4.197304  -2.155042   0.012609  -0.034170
 -2.573526   0.863823   4.686098 -11.184155 -23.950141  -5.364517  19.119940  -2.571380  -2.385459  -2.966852  -1.467680  -0.725271   1.929126   0.451950  -7.495564  -1.344091  -2.888709 -19.325825  -2.158428  -0.257270  10.467242   0.000556  33.309089   0.001187   2.746114   5.522630  -9.306177  -5.934238  -4.043905  21.803567 -12.496860  -8.727415   1.375002   0.052960 -75.256114   0.048634   0.369231 -10.320349  13.391671 -14.838434  -7.045819   4.008900  40.537897   0.001830   0.011687 -15.577598  -6.237675  -6.107490  -0.778313   0.000407   0.000057 -45.141142   5.528103  13.086118 101.749329  -0.015605  -0.075279  -6.230881  11.778414  -4.698969  -1.737186   0.013165  -0.032873
 -2.574398   0.867127   4.689336 -12.255284 -24.363932  -5.518921  19.573591  -2.200204  -2.631881  -2.799681  -1.394795  -0.868567   2.149698   0.401140  -7.638799  -1.286840  -2.532107 -19.736913  -1.855877  -0.026659  10.557100   0.001067  32.943872   0.001159   2.762045   5.500933  -9.223209  -6.115695  -4.498027  22.097159 -13.028136  -8.944990   1.410454   0.058886 -74.804252   0.053885   0.319503 -10.310924  13.526178 -13.149315  -6.768560   3.716083  39.548150   0.001584   0.012861 -15.321527  -5.839281  -6.004235  -0.791044   0.000329   0.000045 -47.530101   5.447643  12.691293 103.388840  -0.015996  -0.072428  -5.854480  11.262531  -5.162625  -1.366640   0.012804  -0.031232
 -2.575240   0.870349   4.692787 -13.353705 -24.814435  -5.661965  20.004373  -1.833340  -2.891871  -2.632453  -1.301697  -1.028516   2.357276   0.353235  -7.773007  -1.228494  -2.177079 -20.142120  -1.579657   0.206182  10.625412   0.001556  32.610046   0.000908   2.784065   5.518830  -9.168292  -6.281757  -4.919416  22.369440 -13.522404  -9.147234   1.440648   0.061658 -74.383428   0.056259   0.272542 -10.305874  13.643780 -11.462605  -6.457113   3.372697  38.599744   0.001269   0.013711 -15.094075  -5.436546  -5.912890  -0.802114   0.000264   0.000036 -49.873387   5.351116  12.333369 104.896072  -0.017352  -0.068695  -5.510489  10.778016  -5.590831  -1.038393   0.011849  -0.029300
 -2.575746   0.873893   4.695212 -14.384799 -25.175164  -5.750168  20.744561  -1.565626  -3.165655  -2.724440  -1.367279  -1.199965   2.573009   0.264973  -8.070112  -1.243050  -1.516023 -20.574275  -1.401051   0.488074  10.631541   0.003546  31.989594   0.000146   2.843141   5.420559  -8.925751  -6.473158  -5.514076  22.699384 -14.137808  -9.197585   1.486391   0.088663 -73.333606   0.081367   0.256833 -10.296040  13.710856  -9.873948  -6.434453   2.911173  37.565092   0.001683   0.016295 -14.553272  -5.054629  -5.585102  -1.116626   0.000914   0.000568 -52.637322   5.563443  12.175586 105.602478  -0.013528  -0.059200  -4.934204  10.211946  -6.172261  -0.653600   0.013667  -0.028516
